# xmcd
#
# Track frame offsets:
# 183
# 18833
# 42808
# 67528
#
# Disc length: 1173 seconds
#
#
# Revision: 3
# Processed by: cddbd v1.5.1PL2 Copyright (c) Steve Scherf et al.
# Submitted via: FreeRIP 2.945 
#
DISCID=1f049304
DTITLE=Al Green -  - Love is a beautiful thing
DYEAR=1900
DGENRE=
TTITLE0=Al Green - Love is a beautiful thing (single edition)
TTITLE1=Al Green - Love is a beautiful thing (vocal surgery mix)
TTITLE2=Al Green - Love is a beautiful thing (album version)
TTITLE3=Al Green - Love in motion
EXTD=
EXTT0=
EXTT1=
EXTT2=
EXTT3=
PLAYORDER=
